<svg xmlns="http://www.w3.org/2000/svg" xmlns:xlink="http://www.w3.org/1999/xlink" width="900" zoomAndPan="magnify" viewBox="0 0 675 225" height="300" preserveAspectRatio="xMidYMid meet" version="1.0"><defs><g/><clipPath id="id1"><path d="M 44 8.066406 L 248 8.066406 L 248 125 L 44 125 Z M 44 8.066406 " clip-rule="nonzero"/></clipPath></defs><rect x="-67.5" width="810" fill="#ffffff" y="-22.5" height="270" fill-opacity="1"/><rect x="-67.5" width="810" fill="#000000" y="-22.5" height="270" fill-opacity="1"/><rect x="-67.5" width="810" fill="#ffffff" y="-22.5" height="270" fill-opacity="1"/><rect x="-67.5" width="810" fill="#000000" y="-22.5" height="270" fill-opacity="1"/><g fill="#ffffff" fill-opacity="1"><g transform="translate(124.419642, 189.803813)"><g><path d="M 49.8125 -71.375 C 44.03125 -71.375 39.515625 -69 36.265625 -64.25 C 33.023438 -59.507812 31.40625 -52.972656 31.40625 -44.640625 C 31.40625 -27.316406 37.992188 -18.65625 51.171875 -18.65625 C 55.148438 -18.65625 59.003906 -19.207031 62.734375 -20.3125 C 66.472656 -21.425781 70.234375 -22.765625 74.015625 -24.328125 L 74.015625 -3.75 C 66.503906 -0.425781 58.003906 1.234375 48.515625 1.234375 C 34.929688 1.234375 24.515625 -2.703125 17.265625 -10.578125 C 10.023438 -18.460938 6.40625 -29.859375 6.40625 -44.765625 C 6.40625 -54.085938 8.160156 -62.273438 11.671875 -69.328125 C 15.179688 -76.390625 20.226562 -81.816406 26.8125 -85.609375 C 33.40625 -89.410156 41.15625 -91.3125 50.0625 -91.3125 C 59.789062 -91.3125 69.085938 -89.195312 77.953125 -84.96875 L 70.5 -65.828125 C 67.175781 -67.390625 63.851562 -68.703125 60.53125 -69.765625 C 57.207031 -70.835938 53.632812 -71.375 49.8125 -71.375 Z M 49.8125 -71.375 "/></g></g></g><g fill="#ffffff" fill-opacity="1"><g transform="translate(206.243212, 189.803813)"><g><path d="M 53.8125 0 L 49.203125 -9.234375 L 48.703125 -9.234375 C 45.460938 -5.210938 42.160156 -2.460938 38.796875 -0.984375 C 35.429688 0.492188 31.078125 1.234375 25.734375 1.234375 C 19.171875 1.234375 14 -0.734375 10.21875 -4.671875 C 6.445312 -8.617188 4.5625 -14.164062 4.5625 -21.3125 C 4.5625 -28.738281 7.144531 -34.265625 12.3125 -37.890625 C 17.488281 -41.523438 24.984375 -43.570312 34.796875 -44.03125 L 46.421875 -44.390625 L 46.421875 -45.375 C 46.421875 -51.125 43.59375 -54 37.9375 -54 C 32.84375 -54 26.375 -52.273438 18.53125 -48.828125 L 11.578125 -64.71875 C 19.703125 -68.90625 29.960938 -71 42.359375 -71 C 51.304688 -71 58.234375 -68.78125 63.140625 -64.34375 C 68.046875 -59.914062 70.5 -53.71875 70.5 -45.75 L 70.5 0 Z M 35.953125 -15.765625 C 38.867188 -15.765625 41.363281 -16.6875 43.4375 -18.53125 C 45.507812 -20.382812 46.546875 -22.785156 46.546875 -25.734375 L 46.546875 -31.15625 L 41.015625 -30.90625 C 33.085938 -30.625 29.125 -27.710938 29.125 -22.171875 C 29.125 -17.898438 31.398438 -15.765625 35.953125 -15.765625 Z M 35.953125 -15.765625 "/></g></g></g><g fill="#ffffff" fill-opacity="1"><g transform="translate(284.803679, 189.803813)"><g><path d="M 32.390625 0 L 8.3125 0 L 8.3125 -95.8125 L 32.390625 -95.8125 Z M 32.390625 0 "/></g></g></g><g fill="#ffffff" fill-opacity="1"><g transform="translate(325.56154, 189.803813)"><g><path d="M -0.125 -69.765625 L 25.25 -69.765625 L 37.0625 -29.734375 C 37.644531 -27.640625 38.035156 -25.117188 38.234375 -22.171875 L 38.734375 -22.171875 C 39.054688 -25.003906 39.546875 -27.488281 40.203125 -29.625 L 52.34375 -69.765625 L 76.90625 -69.765625 L 49.328125 4.4375 C 45.796875 13.875 41.453125 20.539062 36.296875 24.4375 C 31.148438 28.34375 24.429688 30.296875 16.140625 30.296875 C 12.929688 30.296875 9.644531 29.945312 6.28125 29.25 L 6.28125 10.34375 C 8.457031 10.832031 10.941406 11.078125 13.734375 11.078125 C 15.867188 11.078125 17.734375 10.664062 19.328125 9.84375 C 20.929688 9.03125 22.328125 7.875 23.515625 6.375 C 24.710938 4.875 25.988281 2.421875 27.34375 -0.984375 Z M -0.125 -69.765625 "/></g></g></g><g fill="#ffffff" fill-opacity="1"><g transform="translate(402.459688, 189.803813)"><g><path d="M 50.1875 1.234375 C 46.65625 1.234375 43.492188 0.648438 40.703125 -0.515625 C 37.910156 -1.691406 35.140625 -3.796875 32.390625 -6.828125 L 31.28125 -6.828125 C 32.019531 -1.941406 32.390625 1.09375 32.390625 2.28125 L 32.390625 30.296875 L 8.3125 30.296875 L 8.3125 -69.765625 L 27.890625 -69.765625 L 31.28125 -60.90625 L 32.390625 -60.90625 C 36.859375 -67.632812 43.035156 -71 50.921875 -71 C 58.640625 -71 64.691406 -67.796875 69.078125 -61.390625 C 73.472656 -54.984375 75.671875 -46.195312 75.671875 -35.03125 C 75.671875 -23.789062 73.382812 -14.9375 68.8125 -8.46875 C 64.238281 -2 58.03125 1.234375 50.1875 1.234375 Z M 42.125 -52.09375 C 38.59375 -52.09375 36.117188 -50.828125 34.703125 -48.296875 C 33.285156 -45.773438 32.515625 -42.03125 32.390625 -37.0625 L 32.390625 -35.15625 C 32.390625 -29.164062 33.1875 -24.835938 34.78125 -22.171875 C 36.382812 -19.503906 38.910156 -18.171875 42.359375 -18.171875 C 45.441406 -18.171875 47.679688 -19.492188 49.078125 -22.140625 C 50.472656 -24.785156 51.171875 -29.164062 51.171875 -35.28125 C 51.171875 -41.28125 50.472656 -45.582031 49.078125 -48.1875 C 47.679688 -50.789062 45.363281 -52.09375 42.125 -52.09375 Z M 42.125 -52.09375 "/></g></g></g><g fill="#ffffff" fill-opacity="1"><g transform="translate(483.544424, 189.803813)"><g><path d="M 62.1875 -21.421875 C 62.1875 -13.953125 59.640625 -8.304688 54.546875 -4.484375 C 49.460938 -0.671875 42.160156 1.234375 32.640625 1.234375 C 27.460938 1.234375 22.960938 0.953125 19.140625 0.390625 C 15.328125 -0.160156 11.429688 -1.171875 7.453125 -2.640625 L 7.453125 -21.921875 C 11.179688 -20.273438 15.273438 -18.914062 19.734375 -17.84375 C 24.191406 -16.78125 28.164062 -16.25 31.65625 -16.25 C 36.863281 -16.25 39.46875 -17.441406 39.46875 -19.828125 C 39.46875 -21.054688 38.738281 -22.148438 37.28125 -23.109375 C 35.820312 -24.078125 31.582031 -25.957031 24.5625 -28.75 C 18.164062 -31.382812 13.691406 -34.375 11.140625 -37.71875 C 8.597656 -41.0625 7.328125 -45.300781 7.328125 -50.4375 C 7.328125 -56.914062 9.832031 -61.960938 14.84375 -65.578125 C 19.851562 -69.191406 26.929688 -71 36.078125 -71 C 40.679688 -71 45.003906 -70.492188 49.046875 -69.484375 C 53.085938 -68.484375 57.285156 -67.019531 61.640625 -65.09375 L 55.109375 -49.5625 C 51.910156 -51 48.523438 -52.21875 44.953125 -53.21875 C 41.378906 -54.226562 38.460938 -54.734375 36.203125 -54.734375 C 32.265625 -54.734375 30.296875 -53.769531 30.296875 -51.84375 C 30.296875 -50.65625 30.984375 -49.640625 32.359375 -48.796875 C 33.734375 -47.953125 37.707031 -46.238281 44.28125 -43.65625 C 49.15625 -41.644531 52.796875 -39.675781 55.203125 -37.75 C 57.609375 -35.820312 59.375 -33.550781 60.5 -30.9375 C 61.625 -28.332031 62.1875 -25.160156 62.1875 -21.421875 Z M 62.1875 -21.421875 "/></g></g></g><g fill="#ffffff" fill-opacity="1"><g transform="translate(550.776423, 189.803813)"><g><path d="M 74.9375 -35.03125 C 74.9375 -23.625 71.867188 -14.726562 65.734375 -8.34375 C 59.597656 -1.957031 51.007812 1.234375 39.96875 1.234375 C 29.375 1.234375 20.945312 -2.023438 14.6875 -8.546875 C 8.425781 -15.078125 5.296875 -23.90625 5.296875 -35.03125 C 5.296875 -46.40625 8.363281 -55.242188 14.5 -61.546875 C 20.632812 -67.847656 29.242188 -71 40.328125 -71 C 47.179688 -71 53.234375 -69.539062 58.484375 -66.625 C 63.742188 -63.707031 67.800781 -59.53125 70.65625 -54.09375 C 73.507812 -48.65625 74.9375 -42.300781 74.9375 -35.03125 Z M 29.734375 -35.03125 C 29.734375 -29.039062 30.535156 -24.472656 32.140625 -21.328125 C 33.742188 -18.191406 36.429688 -16.625 40.203125 -16.625 C 43.941406 -16.625 46.582031 -18.191406 48.125 -21.328125 C 49.664062 -24.472656 50.4375 -29.039062 50.4375 -35.03125 C 50.4375 -40.988281 49.65625 -45.484375 48.09375 -48.515625 C 46.53125 -51.554688 43.863281 -53.078125 40.09375 -53.078125 C 36.394531 -53.078125 33.742188 -51.566406 32.140625 -48.546875 C 30.535156 -45.535156 29.734375 -41.03125 29.734375 -35.03125 Z M 29.734375 -35.03125 "/></g></g></g><g clip-path="url(#id1)"><path fill="#84fbff" d="M 48.441406 124.46875 C 50.164062 124.46875 51.464844 123.621094 52.3125 121.894531 C 52.765625 121.046875 93.828125 36.964844 169.484375 38.691406 C 186.328125 39.117188 194.976562 43.414062 199.753906 47.257812 L 182.457031 47.257812 C 115.449219 47.257812 92.953125 90.597656 92.105469 92.71875 C 91.230469 94.441406 91.652344 96.589844 93.40625 97.863281 C 95.128906 99.164062 97.277344 99.164062 99 97.863281 C 107.226562 91.023438 131.023438 79.007812 156.511719 73.011719 C 150.890625 81.15625 141.394531 86.726562 141.394531 86.726562 C 139.640625 87.574219 138.792969 89.722656 139.21875 91.445312 C 139.640625 93.171875 141.394531 94.441406 143.542969 94.441406 C 175.957031 94.441406 189.804688 76.011719 193.707031 69.140625 C 209.703125 69.988281 219.621094 74.285156 226.546875 77.707031 L 228.269531 78.582031 C 237.34375 82.425781 242.964844 79.855469 245.566406 76.011719 C 248.589844 71.289062 247.289062 62.722656 238.21875 54.128906 C 227.421875 15.960938 189.804688 12.964844 173.808594 12.964844 C 160.835938 12.964844 147.867188 14.660156 136.195312 18.109375 C 130.144531 14.234375 119.773438 8.667969 108.949219 8.667969 C 96.851562 8.667969 89.503906 13.386719 89.054688 13.8125 C 87.78125 14.660156 86.90625 16.386719 87.328125 18.109375 C 87.78125 19.804688 88.628906 21.105469 90.382812 21.53125 C 95.128906 22.832031 102.902344 26.675781 104.203125 30.125 C 104.203125 30.550781 104.625 31.820312 103.324219 33.96875 C 58.390625 64.417969 44.964844 116.75 44.539062 119.324219 C 44.117188 121.472656 45.417969 123.621094 47.140625 124.46875 C 47.566406 124.46875 47.988281 124.46875 48.441406 124.46875 Z M 48.441406 124.46875 " fill-opacity="1" fill-rule="nonzero"/></g></svg>